<svg width="24" height="24" viewBox="0 0 24 24" fill="none" xmlns="http://www.w3.org/2000/svg">
<g clip-path="url(#clip0_677_113)" filter="url(#filter0_d_677_113)">
<path d="M12 20C16.4183 20 20 16.4183 20 12C20 7.58172 16.4183 4 12 4C7.58172 4 4 7.58172 4 12C4 16.4183 7.58172 20 12 20Z" fill="#F0F0F0"/>
<path d="M11.6522 12.0001H20C20 11.278 19.9038 10.5785 19.7244 9.91309H11.6522V12.0001Z" fill="#D80027"/>
<path d="M11.6522 7.8261H18.8258C18.3361 7.02698 17.7099 6.32064 16.9799 5.73914H11.6522V7.8261Z" fill="#D80027"/>
<path d="M12.0001 19.9997C13.8829 19.9997 15.6134 19.349 16.98 18.2606H7.02023C8.3868 19.349 10.1173 19.9997 12.0001 19.9997Z" fill="#D80027"/>
<path d="M5.1742 16.1739H18.8258C19.219 15.5324 19.5239 14.8311 19.7244 14.0869H4.2756C4.47614 14.8311 4.78104 15.5324 5.1742 16.1739Z" fill="#D80027"/>
<path d="M7.70575 5.24931H8.43478L7.75666 5.74197L8.01569 6.53912L7.33759 6.04647L6.6595 6.53912L6.88325 5.85047C6.28619 6.34781 5.76287 6.9305 5.33162 7.57975H5.56522L5.13356 7.89334C5.06631 8.00553 5.00181 8.1195 4.94 8.23516L5.14612 8.86956L4.76156 8.59016C4.66597 8.79269 4.57853 8.99978 4.49994 9.21119L4.72703 9.91019H5.56522L4.88709 10.4028L5.14612 11.2L4.46803 10.7073L4.06184 11.0025C4.02119 11.3293 4 11.6622 4 12H12C12 7.58175 12 7.06087 12 4C10.4196 4 8.94641 4.45844 7.70575 5.24931ZM8.01569 11.2L7.33759 10.7073L6.6595 11.2L6.91853 10.4028L6.24041 9.91019H7.07859L7.33759 9.11303L7.59659 9.91019H8.43478L7.75666 10.4028L8.01569 11.2ZM7.75666 8.07241L8.01569 8.86956L7.33759 8.37691L6.6595 8.86956L6.91853 8.07241L6.24041 7.57975H7.07859L7.33759 6.78259L7.59659 7.57975H8.43478L7.75666 8.07241ZM10.8853 11.2L10.2072 10.7073L9.52906 11.2L9.78809 10.4028L9.10997 9.91019H9.94816L10.2072 9.11303L10.4662 9.91019H11.3043L10.6262 10.4028L10.8853 11.2ZM10.6262 8.07241L10.8853 8.86956L10.2072 8.37691L9.52906 8.86956L9.78809 8.07241L9.10997 7.57975H9.94816L10.2072 6.78259L10.4662 7.57975H11.3043L10.6262 8.07241ZM10.6262 5.74197L10.8853 6.53912L10.2072 6.04647L9.52906 6.53912L9.78809 5.74197L9.10997 5.24931H9.94816L10.2072 4.45216L10.4662 5.24931H11.3043L10.6262 5.74197Z" fill="#0052B4"/>
</g>
<defs>
<filter id="filter0_d_677_113" x="0" y="0" width="24" height="24" filterUnits="userSpaceOnUse" color-interpolation-filters="sRGB">
<feFlood flood-opacity="0" result="BackgroundImageFix"/>
<feColorMatrix in="SourceAlpha" type="matrix" values="0 0 0 0 0 0 0 0 0 0 0 0 0 0 0 0 0 0 127 0" result="hardAlpha"/>
<feOffset/>
<feGaussianBlur stdDeviation="2"/>
<feComposite in2="hardAlpha" operator="out"/>
<feColorMatrix type="matrix" values="0 0 0 0 0 0 0 0 0 0 0 0 0 0 0 0 0 0 0.15 0"/>
<feBlend mode="normal" in2="BackgroundImageFix" result="effect1_dropShadow_677_113"/>
<feBlend mode="normal" in="SourceGraphic" in2="effect1_dropShadow_677_113" result="shape"/>
</filter>
<clipPath id="clip0_677_113">
<rect width="16" height="16" fill="white" transform="translate(4 4)"/>
</clipPath>
</defs>
</svg>
